<svg width="1200" height="700" xmlns="http://www.w3.org/2000/svg" version="1.1">

 <g>
  <title>Layer 1</title>
  <path stroke="null" id="svg_1" fill="#5CBFB5" d="m385.79672,67.63625c0.81407,-0.0048 1.62815,-0.0096 2.46689,-0.01455c1.71744,-0.00791 3.43489,-0.01344 5.15233,-0.01671c2.55941,-0.00809 5.11841,-0.03423 7.67772,-0.06088c11.50456,-0.06229 22.71894,0.90621 34.1147,2.79023c0.52683,0.08627 1.05365,0.17254 1.59644,0.26143c2.70576,0.45404 5.39384,0.98732 8.08064,1.58117c0.78696,0.17149 1.57392,0.34298 2.38472,0.51967c6.35314,1.44803 12.60538,3.2772 18.8523,5.27135c0.86773,0.27654 1.73546,0.55308 2.62949,0.83801c4.84168,1.59562 9.48973,3.4473 14.0974,5.84798c-0.73717,4.91364 -1.48596,9.82432 -2.25507,14.7309c-3.05468,19.52033 -4.8742,38.10282 -4.8423,57.97187c0.00376,2.79053 0.00002,5.58095 -0.00444,8.37148c0.00046,1.80092 0.00136,3.60184 0.00273,5.40275c-0.00142,0.82065 -0.00284,1.6413 -0.00429,2.48681c-0.34002,11.68172 -0.34002,11.68172 4.12581,21.43404c0.7118,0.93127 1.41951,1.86707 2.1237,2.80667c0.37119,0.49038 0.74237,0.98076 1.1248,1.486c27.10806,37.19849 41.74562,88.67022 45.96884,137.16609c0.06706,0.76719 0.13412,1.53439 0.2032,2.32483c0.56607,7.20516 0.6677,14.3979 0.67255,21.62892c0.00071,0.96103 0.00071,0.96103 0.00144,1.94149c-0.04946,42.67749 -8.15018,91.24889 -28.2007,127.40879c0,0.83391 0,1.66781 0,2.52699c-0.9298,2.06421 -1.88919,4.02357 -2.93377,6.0016c-0.30965,0.59082 -0.61931,1.18164 -0.93835,1.79036c-3.73171,6.98623 -7.96403,13.49581 -12.24174,20.00493c-0.52923,0.81762 -1.05846,1.63523 -1.60372,2.47763c-2.74879,4.20678 -5.64137,8.21825 -8.64533,12.16443c-1.33807,1.77572 -2.64464,3.57257 -3.94636,5.3863c-2.685,3.69575 -5.51217,7.19672 -8.39903,10.66403c-0.783,0.9413 -0.783,0.9413 -1.58183,1.90161c-3.38461,4.0275 -6.82945,7.76535 -10.58019,11.29598c-1.62167,1.54513 -3.13328,3.17205 -4.65244,4.85986c-11.82472,12.73219 -25.91733,22.91971 -39.7592,32.11382c-0.61107,0.40826 -1.22215,0.81653 -1.85174,1.23717c-34.12162,22.62184 -74.4139,36.65709 -113.53151,36.83876c-0.82963,0.0048 -1.65925,0.0096 -2.51402,0.01455c-1.75042,0.00791 -3.50085,0.01344 -5.25128,0.01671c-2.61015,0.00809 -5.2199,0.03424 -7.82996,0.06088c-15.86715,0.08558 -31.42088,-1.70354 -46.97459,-5.47514c-0.52456,-0.12468 -1.04911,-0.24935 -1.58957,-0.3778c-19.50216,-4.66119 -38.44015,-12.14756 -56.47288,-22.22197c-1.46172,-0.81249 -2.93006,-1.60476 -4.40066,-2.39373c-12.03902,-6.53486 -23.39529,-14.62368 -34.22006,-23.70368c-0.40098,-0.33158 -0.80197,-0.66317 -1.2151,-1.0048c-9.12564,-7.5523 -17.72819,-15.89662 -25.85115,-24.95278c-1.4315,-1.58761 -2.8887,-3.11494 -4.3733,-4.62952c-6.07095,-6.35094 -11.72883,-13.39124 -16.90204,-20.79502c-0.84667,-1.17268 -0.84667,-1.17268 -1.71045,-2.36905c-15.18975,-21.11315 -30.8176,-46.727 -38.2239,-73.44063c3.25471,1.34443 5.87733,3.45727 8.71375,5.73837c26.96614,21.29318 55.91246,38.1595 85.86762,52.38239c-0.12183,-0.76927 -0.12183,-0.76927 -0.24613,-1.55408c-0.37419,-2.37665 -0.74276,-4.75452 -1.11129,-7.13244c-0.12779,-0.80622 -0.25558,-1.61244 -0.38724,-2.44309c-1.53152,-9.94323 -1.90409,-19.67149 -1.88971,-29.77602c0.00066,-0.59706 0.00132,-1.19411 0.00199,-1.80926c0.06766,-28.44346 4.6551,-62.67805 19.04565,-86.16156c0.2312,0 0.4624,0 0.7006,0c0.13166,1.13736 0.13166,1.13736 0.26598,2.29769c3.01869,25.77416 7.42813,49.60502 17.94969,72.66966c0.40369,0.88582 0.40369,0.88582 0.81555,1.78954c3.86386,8.37875 8.11204,16.10687 13.1965,23.48036c0.33066,0.48305 0.66131,0.9661 1.00199,1.46379c6.9008,10.03223 14.22329,19.195 22.8185,27.17542c0.37886,0.35588 0.75772,0.71175 1.14806,1.07841c21.18557,19.7901 46.00694,31.72962 72.41522,36.82643c0.82009,0.16409 0.82009,0.16409 1.65675,0.3315c24.60318,4.73443 50.58842,0.56598 74.01553,-9.04271c1.94923,-0.77524 3.92676,-1.41825 5.90415,-2.08114c15.69878,-5.8296 30.66932,-16.27575 43.83146,-27.95482c0.41668,-0.36877 0.83336,-0.73754 1.26266,-1.11749c6.79596,-6.07682 12.95992,-12.88363 19.05482,-19.94075c0.55633,-0.63412 1.11265,-1.26824 1.68583,-1.92156c3.74708,-4.36207 7.00489,-9.1562 10.22442,-14.0827c0.50485,-0.77093 1.00969,-1.54186 1.52984,-2.33615c18.262,-28.57056 30.94646,-62.73593 34.2009,-98.74343c0.06401,-0.6504 0.12802,-1.30081 0.19397,-1.97093c0.65492,-7.39972 0.67719,-14.81309 0.68178,-22.24606c0.00048,-0.68943 0.00095,-1.37885 0.00144,-2.08917c-0.04359,-40.15633 -10.51627,-80.94064 -30.3025,-113.5206c-0.27951,-0.46134 -0.55903,-0.92268 -0.84701,-1.39799c-8.88435,-14.52164 -18.82582,-27.93868 -30.68011,-39.03384c-0.89589,-0.85868 -1.79171,-1.71747 -2.68746,-2.57635c-6.94993,-6.59667 -14.13976,-12.37481 -21.83363,-17.63957c-0.52528,-0.36144 -1.05055,-0.72289 -1.59175,-1.09528c-18.03261,-12.26873 -37.69981,-19.45399 -57.95948,-24.17461c0.14792,1.25004 0.14792,1.25004 0.29882,2.52534c1.08499,9.70803 1.35495,19.27481 1.32132,29.06203c-0.00191,1.16196 -0.00191,1.16196 -0.00387,2.3474c-0.03437,12.42179 -0.50596,24.56673 -2.31688,36.82093c-0.12022,0.83404 -0.24045,1.66808 -0.36433,2.52739c-3.37776,22.78769 -9.66704,45.15112 -18.55195,65.70132c-0.4624,0 -0.9248,0 -1.40121,0c0.01468,-1.09593 0.02936,-2.19186 0.04447,-3.32099c0.36733,-30.17326 -0.58614,-59.00529 -6.3499,-88.49296c-0.23554,-1.20954 -0.23554,-1.20954 -0.47585,-2.4435c-3.36139,-16.93844 -7.7288,-33.46431 -13.68074,-49.35198c-0.38362,-1.02833 -0.38362,-1.02833 -0.77501,-2.07745c-0.22849,-0.59917 -0.45698,-1.19833 -0.69239,-1.81565c-0.48988,-1.58986 -0.48988,-1.58986 -0.48988,-4.11684c-32.84638,0.87147 -64.37957,6.6006 -94.58137,22.74291c-0.56264,0.29602 -1.12529,0.59204 -1.70498,0.89703c-16.89178,8.94974 -32.59364,20.93441 -46.63661,35.32315c-0.75943,0.75745 -1.51936,1.51419 -2.27969,2.27034c-8.22053,8.24274 -16.19162,17.1954 -22.94201,27.2112c-0.57077,0.8415 -1.14154,1.68301 -1.72961,2.55002c-2.0377,3.04001 -4.01955,6.12744 -5.97702,9.2426c-0.37039,0.58865 -0.74078,1.17729 -1.1224,1.78378c-1.11677,1.79579 -2.21135,3.60825 -3.30015,5.42867c-0.34928,0.56136 -0.69856,1.12273 -1.05843,1.70111c-1.83166,3.05137 -1.83166,3.05137 -1.98208,6.67283c1.60289,2.91124 3.33398,5.62669 5.1861,8.31472c0.4033,0.58939 0.8066,1.17878 1.22212,1.78604c33.01039,47.73415 80.91719,78.85954 132.38227,85.26348c4.09504,0.45044 8.19091,0.79622 12.29612,1.07924c0.7075,0.05218 0.7075,0.05218 1.42928,0.10542c8.47451,0.62289 16.92258,0.90941 25.41256,0.89485c0.60501,-0.00079 1.21003,-0.00158 1.83338,-0.00239c15.89969,-0.04446 31.53989,-1.35501 47.29639,-3.89338c0.54043,-0.08696 1.08085,-0.17392 1.63766,-0.26351c6.42219,-1.04712 12.76469,-2.32192 19.10419,-3.94505c2.07153,-0.47689 2.07153,-0.47689 4.17334,-0.47689c0,0.55594 0,1.11187 0,1.68466c-35.90317,23.23677 -73.40792,37.29179 -114.46097,37.22045c-0.58814,-0.00079 -1.17628,-0.00158 -1.78225,-0.00239c-38.38794,-0.11131 -75.55132,-11.7589 -109.1976,-34.05604c-1.63037,-1.06812 -3.24444,-2.04525 -4.9179,-3.0008c-3.47399,-2.07441 -6.57533,-4.72641 -9.72907,-7.42632c-0.61598,-0.52371 -1.23197,-1.04741 -1.86662,-1.58698c-18.19434,-15.54761 -36.5496,-33.69632 -50.3447,-54.9248c-1.13978,-1.75033 -2.32937,-3.38892 -3.57417,-5.03094c-2.45459,-3.33909 -4.68617,-6.86952 -6.91845,-10.42383c-0.53755,-0.8505 -0.53755,-0.8505 -1.08597,-1.71818c-1.01896,-1.6374 -2.00508,-3.2975 -2.98628,-4.96781c-0.31699,-0.4971 -0.63399,-0.9942 -0.96059,-1.50637c-0.84292,-1.46153 -0.84292,-1.46153 -1.84182,-4.38994c0.63822,-2.5642 1.23024,-4.14505 2.36453,-6.37012c0.28861,-0.60677 0.57721,-1.21354 0.87456,-1.8387c0.99469,-2.05861 2.02555,-4.08543 3.06633,-6.11079c0.57456,-1.12912 0.57456,-1.12912 1.16072,-2.28104c10.7296,-20.9723 22.80077,-41.57339 37.64611,-58.67272c1.19073,-1.31426 1.19073,-1.31426 1.82813,-3.06331c0.4624,0 0.9248,0 1.40121,0c0,-0.55594 0,-1.11188 0,-1.68466c1.05364,-1.24704 1.05364,-1.24704 2.4959,-2.68493c1.90027,-1.93718 3.70421,-3.89413 5.42967,-6.05425c2.54436,-3.10032 5.29698,-5.82031 8.12261,-8.54176c1.46271,-1.41221 2.90413,-2.83415 4.33498,-4.29062c45.34054,-45.60391 104.96474,-68.66131 163.61263,-68.71568c0.79358,-0.00138 0.79358,-0.00138 1.60319,-0.00278c5.36982,0.00105 10.70273,0.12866 16.05966,0.59175c1.67292,0.13943 3.34597,0.27668 5.01916,0.4113c0.71499,0.05856 1.42998,0.11713 2.16663,0.17747c5.36146,0.24013 9.9097,-1.16386 14.99508,-3.12907c2.36864,-0.91058 4.75109,-1.76487 7.13497,-2.61568c0.7283,-0.26008 0.7283,-0.26008 1.4713,-0.5254c18.42083,-6.47808 38.0427,-9.99175 57.23428,-10.08269z"/>
  <path id="svg_2" fill="#5EC0B6" d="m239.64909,198.00339c10.54171,6.62622 16.67735,14.83283 20.63672,26.71094c0.85781,13.83753 0.12784,24.98791 -9.16016,36.0039c-7.43778,8.06944 -16.39766,13.23878 -27.49609,14.23438c-10.30123,0.26885 -20.45462,-1.69234 -28.50781,-8.48828c-7.96991,-7.59685 -15.08728,-16.2705 -15.83594,-27.75c-0.05027,-0.63938 -0.10055,-1.27875 -0.15235,-1.9375c-0.47772,-10.70114 2.6462,-19.67829 9.15235,-28.0625c0.70125,-1.03125 1.4025,-2.0625 2.125,-3.125c11.68661,-13.58379 34.03308,-15.87968 49.23828,-7.58594z"/>
  <path id="svg_4" fill="#81CEC6" d="m335.7143,368.57149c0.33,0 0.66,0 1,0c0.3125,2.3125 0.3125,2.3125 0,5c-2.5,1.8125 -2.5,1.8125 -5,3c1.12452,-2.97194 2.22294,-5.33441 4,-8z"/>
  <text transform="matrix(1.1611 0 0 1.24595 -191.395 -101.699)" stroke="null" xml:space="preserve" text-anchor="start" font-family="'EB Garamond'" font-size="250" stroke-width="0" id="svg_5" y="426.08486" x="646.15704" fill="#000000">Tuna</text>
 </g>
</svg>