<?xml version="1.0" encoding="UTF-8"?>
<svg version="1.1" xmlns="http://www.w3.org/2000/svg" width="1200" height="1200">
<path d="M0 0 C1.16196396 -0.00570007 2.32392792 -0.01140015 3.52110291 -0.01727295 C5.97247425 -0.02666309 8.42385788 -0.0332329 10.87524414 -0.03710938 C14.52839839 -0.04671346 18.18096404 -0.07775353 21.83398438 -0.109375 C38.25492522 -0.18333352 54.26169427 0.96645735 70.52734375 3.203125 C71.27930023 3.30554504 72.03125671 3.40796509 72.80599976 3.51348877 C76.66805008 4.05251809 80.50486262 4.685624 84.33984375 5.390625 C85.46310059 5.59421631 86.58635742 5.79780762 87.74365234 6.00756836 C96.81174772 7.72664745 105.73584599 9.89821123 114.65234375 12.265625 C115.89089111 12.59393311 117.12943848 12.92224121 118.40551758 13.26049805 C125.31625728 15.15479088 131.95060991 17.35308105 138.52734375 20.203125 C137.47514281 26.03652111 136.40637282 31.86640292 135.30859375 37.69140625 C130.9485235 60.86561632 128.35143558 82.92644191 128.39697266 106.51464844 C128.40234277 109.82752027 128.3969959 113.14025723 128.390625 116.453125 C128.3912857 118.59114613 128.39256671 120.72916717 128.39453125 122.8671875 C128.39250702 123.84144684 128.39048279 124.81570618 128.38839722 125.81948853 C127.90306713 139.68784327 127.90306713 139.68784327 134.27734375 151.265625 C135.29331615 152.37122235 136.30346809 153.48218871 137.30859375 154.59765625 C137.83839844 155.1798291 138.36820313 155.76200195 138.9140625 156.36181641 C177.60655292 200.52325145 198.49936076 261.62963004 204.52734375 319.203125 C204.62305664 320.11392822 204.71876953 321.02473145 204.81738281 321.96313477 C205.62534633 330.51697794 205.77042139 339.05607688 205.77734375 347.640625 C205.77835587 348.78155106 205.77835587 348.78155106 205.77938843 349.94552612 C205.70878527 400.61153651 194.14629068 458.27470461 165.52734375 501.203125 C165.52734375 502.193125 165.52734375 503.183125 165.52734375 504.203125 C164.20018942 506.65371697 162.83082283 508.97984703 161.33984375 511.328125 C160.89785645 512.02953613 160.45586914 512.73094727 160.00048828 513.45361328 C154.67405678 521.74754926 148.63308541 529.47560979 142.52734375 537.203125 C141.77195312 538.17378906 141.0165625 539.14445313 140.23828125 540.14453125 C136.3148114 545.13874885 132.18611868 549.9010987 127.8984375 554.5859375 C125.98856246 556.69403681 124.12364169 558.82723091 122.265625 560.98046875 C118.43320906 565.36800215 114.39788183 569.52430111 110.27734375 573.640625 C109.15972656 574.75812134 109.15972656 574.75812134 108.01953125 575.89819336 C103.18852748 580.67957069 98.27156878 585.11707756 92.91796875 589.30859375 C90.60329223 591.14293707 88.44571132 593.07439274 86.27734375 595.078125 C69.39941876 610.19357641 49.28443031 622.28802634 29.52734375 633.203125 C28.65513184 633.6878125 27.78291992 634.1725 26.88427734 634.671875 C-21.81895165 661.52815206 -79.32984002 678.1905663 -135.1640625 678.40625 C-136.3482225 678.41195007 -137.53238251 678.41765015 -138.75242615 678.42352295 C-141.25087611 678.43291465 -143.74933813 678.43948353 -146.24780273 678.44335938 C-149.97338048 678.45296571 -153.69838165 678.48400527 -157.42382812 678.515625 C-180.07168651 678.6172316 -202.27218817 676.49322092 -224.47265625 672.015625 C-225.22138 671.86761444 -225.97010376 671.71960388 -226.74151611 671.56710815 C-254.57777833 666.03341981 -281.60877713 657.14573255 -307.34765625 645.18554688 C-309.43404018 644.22097784 -311.52986393 643.28039813 -313.62890625 642.34375 C-330.81271957 634.58566559 -347.02199868 624.98275515 -362.47265625 614.203125 C-363.045 613.80947754 -363.61734375 613.41583008 -364.20703125 613.01025391 C-377.2324372 604.04428613 -389.51123142 594.13805158 -401.10546875 583.38671875 C-403.14871469 581.50194238 -405.22864284 579.68870899 -407.34765625 577.890625 C-416.01298334 570.3508971 -424.0887098 561.99276804 -431.47265625 553.203125 C-432.68115234 551.8109375 -432.68115234 551.8109375 -433.9140625 550.390625 C-455.59502758 525.32544837 -477.90132801 494.91710973 -488.47265625 463.203125 C-483.82707544 464.79920747 -480.08369662 467.30754095 -476.03515625 470.015625 C-437.54524124 495.29453576 -396.2289439 515.31795017 -353.47265625 532.203125 C-353.64655884 531.2898645 -353.64655884 531.2898645 -353.82397461 530.3581543 C-354.35806501 527.53663025 -354.88413542 524.71366415 -355.41015625 521.890625 C-355.59255859 520.93349609 -355.77496094 519.97636719 -355.96289062 518.99023438 C-358.1488988 507.18579021 -358.68068312 495.63656371 -358.66015625 483.640625 C-358.65921967 482.93181183 -358.65828308 482.22299866 -358.65731812 481.4927063 C-358.56075091 447.72510518 -352.01289971 407.08236613 -331.47265625 379.203125 C-331.14265625 379.203125 -330.81265625 379.203125 -330.47265625 379.203125 C-330.28473511 380.55337769 -330.28473511 380.55337769 -330.09301758 381.9309082 C-325.78431208 412.52955648 -319.49052676 440.82117135 -304.47265625 468.203125 C-303.89644531 469.2547583 -303.89644531 469.2547583 -303.30859375 470.32763672 C-297.793539 480.27474958 -291.72993058 489.44945093 -284.47265625 498.203125 C-284.00069824 498.77659668 -283.52874023 499.35006836 -283.04248047 499.94091797 C-273.19267743 511.85102293 -262.74097031 522.72890341 -250.47265625 532.203125 C-249.93189453 532.62561523 -249.39113281 533.04810547 -248.83398438 533.48339844 C-218.59492147 556.97788034 -183.16632011 571.15228236 -145.47265625 577.203125 C-144.30210693 577.39793457 -144.30210693 577.39793457 -143.10791016 577.59667969 C-107.99074197 583.21731589 -70.90091023 578.26859713 -37.46240234 566.86132812 C-34.6801844 565.94097726 -31.85757393 565.17761092 -29.03515625 564.390625 C-6.62763027 557.46981951 14.74046064 545.06833193 33.52734375 531.203125 C34.12208496 530.76532715 34.71682617 530.3275293 35.32958984 529.87646484 C45.02974568 522.66215771 53.82782897 514.58122913 62.52734375 506.203125 C63.32140625 505.4503125 64.11546875 504.6975 64.93359375 503.921875 C70.28195677 498.74330128 74.93196143 493.0517934 79.52734375 487.203125 C80.24792969 486.28789063 80.96851563 485.37265625 81.7109375 484.4296875 C107.77707182 450.5111883 125.8821407 409.95063029 130.52734375 367.203125 C130.61870605 366.43097656 130.71006836 365.65882813 130.80419922 364.86328125 C131.7390028 356.07846046 131.77078268 347.27743381 131.77734375 338.453125 C131.77801849 337.63465088 131.77869324 336.81617676 131.77938843 335.97290039 C131.71717499 288.29996767 116.7690735 239.88151982 88.52734375 201.203125 C88.12837891 200.65543457 87.72941406 200.10774414 87.31835938 199.54345703 C74.63734508 182.30360789 60.44747282 166.37512421 43.52734375 153.203125 C42.24860125 152.183715 40.96996235 151.16417503 39.69140625 150.14453125 C29.77147851 142.31307072 19.50913118 135.45336029 8.52734375 129.203125 C7.77759277 128.77402832 7.0278418 128.34493164 6.25537109 127.90283203 C-19.48334379 113.33759826 -47.55517116 104.80737823 -76.47265625 99.203125 C-76.26153198 100.6871582 -76.26153198 100.6871582 -76.04614258 102.20117188 C-74.49748922 113.7263771 -74.11215817 125.08390751 -74.16015625 136.703125 C-74.16289047 138.08259308 -74.16289047 138.08259308 -74.16567993 139.4899292 C-74.21473946 154.23687093 -74.88786142 168.6551432 -77.47265625 183.203125 C-77.6442627 184.19328613 -77.81586914 185.18344727 -77.99267578 186.20361328 C-82.81390473 213.25678268 -91.79085495 239.80626638 -104.47265625 264.203125 C-105.13265625 264.203125 -105.79265625 264.203125 -106.47265625 264.203125 C-106.45170898 262.90205811 -106.43076172 261.60099121 -106.40917969 260.26049805 C-105.88486598 224.43931071 -107.24579756 190.2104015 -115.47265625 155.203125 C-115.80885986 153.76718994 -115.80885986 153.76718994 -116.15185547 152.30224609 C-120.94971753 132.19321096 -127.18350753 112.57398089 -135.67895508 93.71240234 C-136.22652466 92.49157959 -136.22652466 92.49157959 -136.78515625 91.24609375 C-137.11128906 90.53477295 -137.43742187 89.82345215 -137.7734375 89.09057617 C-138.47265625 87.203125 -138.47265625 87.203125 -138.47265625 84.203125 C-185.35569165 85.2377299 -230.36435105 92.0392513 -273.47265625 111.203125 C-274.27574219 111.55455566 -275.07882812 111.90598633 -275.90625 112.26806641 C-300.0165995 122.89305006 -322.42854163 137.12105315 -342.47265625 154.203125 C-343.55663173 155.10235861 -344.64130504 156.00075149 -345.7265625 156.8984375 C-357.46006688 166.6840874 -368.83755099 177.31252919 -378.47265625 189.203125 C-379.28734375 190.20214844 -380.10203125 191.20117188 -380.94140625 192.23046875 C-383.84990898 195.83952187 -386.67867915 199.50486559 -389.47265625 203.203125 C-390.00133301 203.90195801 -390.53000977 204.60079102 -391.07470703 205.32080078 C-392.66873472 207.45273478 -394.23106689 209.60445391 -395.78515625 211.765625 C-396.28370117 212.43207031 -396.78224609 213.09851563 -397.29589844 213.78515625 C-399.91030342 217.40769479 -399.91030342 217.40769479 -400.125 221.70703125 C-397.83711596 225.16319649 -395.3662745 228.38693612 -392.72265625 231.578125 C-392.14700928 232.27784424 -391.5713623 232.97756348 -390.97827148 233.69848633 C-343.86113596 290.36768339 -275.48173101 327.31923011 -202.0234375 334.921875 C-196.1784073 335.45664279 -190.33220612 335.86713864 -184.47265625 336.203125 C-183.46282181 336.26507553 -183.46282181 336.26507553 -182.43258667 336.32827759 C-170.33656083 337.06775883 -158.2782817 337.40791613 -146.16015625 337.390625 C-145.29659515 337.38968842 -144.43303406 337.38875183 -143.54330444 337.38778687 C-120.84899779 337.33500518 -98.52506855 335.77914415 -76.03515625 332.765625 C-75.26378326 332.66238922 -74.49241028 332.55915344 -73.69766235 332.45278931 C-64.53098503 331.20966896 -55.47807264 329.69624808 -46.42944336 327.76928711 C-43.47265625 327.203125 -43.47265625 327.203125 -40.47265625 327.203125 C-40.47265625 327.863125 -40.47265625 328.523125 -40.47265625 329.203125 C-91.71878091 356.7894365 -145.25089944 373.47532541 -203.84765625 373.390625 C-204.68713806 373.38968842 -205.52661987 373.38875183 -206.39154053 373.38778687 C-261.18427591 373.25565109 -314.22914729 359.42782101 -362.25390625 332.95703125 C-364.58101338 331.6889838 -366.88482735 330.52893528 -369.2734375 329.39453125 C-374.23201762 326.93182903 -378.65868854 323.78341987 -383.16015625 320.578125 C-384.03937744 319.95639404 -384.91859863 319.33466309 -385.82446289 318.6940918 C-411.79400997 300.23622014 -437.99326426 278.69038251 -457.68359375 253.48828125 C-459.31043826 251.41032484 -461.00839574 249.46500916 -462.78515625 247.515625 C-466.28869743 243.55152442 -469.47392843 239.36024999 -472.66015625 235.140625 C-473.42743042 234.13092651 -473.42743042 234.13092651 -474.21020508 233.10083008 C-475.66462308 231.15692846 -477.07214645 229.18608745 -478.47265625 227.203125 C-478.92511719 226.61297607 -479.37757813 226.02282715 -479.84375 225.41479492 C-481.046875 223.6796875 -481.046875 223.6796875 -482.47265625 220.203125 C-481.56169864 217.15895372 -480.71667876 215.28218804 -479.09765625 212.640625 C-478.68572021 211.92028076 -478.27378418 211.19993652 -477.84936523 210.45776367 C-476.42960611 208.01381434 -474.95821661 205.60761254 -473.47265625 203.203125 C-472.6525708 201.86266113 -472.6525708 201.86266113 -471.81591797 200.49511719 C-456.50110409 175.59714645 -439.27140593 151.13988337 -418.08203125 130.83984375 C-416.38245242 129.27957194 -416.38245242 129.27957194 -415.47265625 127.203125 C-414.81265625 127.203125 -414.15265625 127.203125 -413.47265625 127.203125 C-413.47265625 126.543125 -413.47265625 125.883125 -413.47265625 125.203125 C-411.96875 123.72265625 -411.96875 123.72265625 -409.91015625 122.015625 C-407.19783012 119.71583798 -404.62298982 117.39258035 -402.16015625 114.828125 C-398.52848002 111.14748235 -394.59955591 107.91835645 -390.56640625 104.6875 C-388.47862332 103.01094704 -386.42121848 101.32283978 -384.37890625 99.59375 C-319.66243799 45.45355101 -234.55828126 18.08017751 -150.84765625 18.015625 C-149.71494797 18.01399353 -149.71494797 18.01399353 -148.55935669 18.0123291 C-140.89479174 18.01358283 -133.28289675 18.16507402 -125.63671875 18.71484375 C-123.2488877 18.88036511 -120.8608757 19.04330537 -118.47265625 19.203125 C-117.45212158 19.27265381 -116.43158691 19.34218262 -115.38012695 19.41381836 C-107.72749358 19.6988953 -101.2355863 18.03210852 -93.97702026 15.69903564 C-90.59616237 14.61800698 -87.19559353 13.60381783 -83.79296875 12.59375 C-82.75344307 12.28499435 -82.75344307 12.28499435 -81.69291687 11.97000122 C-55.40009437 4.27933483 -27.39296371 0.10796366 0 0 Z " fill="#5CBFB5" transform="translate(741.47265625,260.796875)"/>
<path d="M0 0 C10.54170662 6.62621559 16.67734921 14.83282888 20.63671875 26.7109375 C21.49453321 40.54846916 20.7645565 51.69885087 11.4765625 62.71484375 C4.03878144 70.7842835 -4.92109532 75.95362376 -16.01953125 76.94921875 C-26.32076329 77.21806959 -36.47414672 75.25688436 -44.52734375 68.4609375 C-52.49724894 60.8640917 -59.61461784 52.19044306 -60.36328125 40.7109375 C-60.41355469 40.0715625 -60.46382813 39.4321875 -60.515625 38.7734375 C-60.99335439 28.07229918 -57.86942864 19.09514805 -51.36328125 10.7109375 C-50.66203125 9.6796875 -49.96078125 8.6484375 -49.23828125 7.5859375 C-37.55166772 -5.99785355 -15.20519824 -8.2937445 0 0 Z " fill="#5EC0B6" transform="translate(510.36328125,430.2890625)"/>
<path d="M0 0 C0 0.66 0 1.32 0 2 C-1.45537568 2.83848804 -2.91440373 3.67063934 -4.375 4.5 C-5.59316406 5.19609375 -5.59316406 5.19609375 -6.8359375 5.90625 C-9 7 -9 7 -11 7 C-10.67 6.01 -10.34 5.02 -10 4 C-10.99 3.34 -11.98 2.68 -13 2 C-11.39658445 1.66307215 -9.79223445 1.33058907 -8.1875 1 C-7.29417969 0.814375 -6.40085937 0.62875 -5.48046875 0.4375 C-3 0 -3 0 0 0 Z " fill="#97D7D1" transform="translate(701,588)"/>
<path d="M0 0 C0.33 0 0.66 0 1 0 C1.3125 2.3125 1.3125 2.3125 1 5 C-1.5 6.8125 -1.5 6.8125 -4 8 C-2.87548273 5.0280615 -1.77706209 2.66559313 0 0 Z " fill="#81CEC6" transform="translate(410,640)"/>
</svg>
